<?xml version="1.0" encoding="utf-8"?>
<!-- Generator: Adobe Illustrator 16.0.0, SVG Export Plug-In . SVG Version: 6.00 Build 0)  -->
<!DOCTYPE svg PUBLIC "-//W3C//DTD SVG 1.1//EN" "http://www.w3.org/Graphics/SVG/1.1/DTD/svg11.dtd">
<svg version="1.1" id="Layer_1" xmlns="http://www.w3.org/2000/svg" xmlns:xlink="http://www.w3.org/1999/xlink" x="0px" y="0px"
	 width="841.89px" height="595.276px" viewBox="0 0 841.89 595.276" enable-background="new 0 0 841.89 595.276"
	 xml:space="preserve">
<rect y="0.5" fill="#A3A2A2" width="841.89" height="595.275"/>
<g display="none">
	<defs>
		<rect id="SVGID_1_" y="0.001" width="841.89" height="595.275"/>
	</defs>
	<clipPath id="SVGID_2_" display="inline">
		<use xlink:href="#SVGID_1_"  overflow="visible"/>
	</clipPath>
	<path display="inline" clip-path="url(#SVGID_2_)" fill="#2B6868" d="M87.538,80.389l0.529-3.559l-3.559,0.529
		c-2.315,0.344-4.066,2.094-4.409,4.409l-0.529,3.559l3.559-0.529C85.444,84.455,87.194,82.704,87.538,80.389"/>
	<path display="inline" clip-path="url(#SVGID_2_)" fill="#2B6868" d="M90.362,136.852l0.93-6.261l-6.261,0.93
		c-4.073,0.605-7.153,3.684-7.757,7.757l-0.93,6.261l6.261-0.929C86.678,144.003,89.758,140.925,90.362,136.852"/>
	<path display="inline" clip-path="url(#SVGID_2_)" fill="#2B6868" d="M93.187,193.314l1.332-8.963l-8.964,1.331
		c-5.83,0.866-10.239,5.274-11.105,11.105l-1.331,8.963l8.964-1.331C87.913,203.553,92.321,199.145,93.187,193.314"/>
	<path display="inline" clip-path="url(#SVGID_2_)" fill="#2B6868" d="M96.011,249.776l1.733-11.665l-11.666,1.732
		c-7.588,1.127-13.326,6.864-14.452,14.452l-1.732,11.666l11.664-1.732C89.146,263.102,94.885,257.365,96.011,249.776"/>
	<path display="inline" clip-path="url(#SVGID_2_)" fill="#2B6868" d="M486.438,480.668c-0.344-2.314-2.095-4.065-4.409-4.409
		l-3.56-0.528l0.529,3.559c0.344,2.315,2.094,4.066,4.41,4.409l3.558,0.529L486.438,480.668z"/>
	<path display="inline" clip-path="url(#SVGID_2_)" fill="#2B6868" d="M424.521,473.435l-6.262-0.931l0.93,6.262
		c0.605,4.073,3.684,7.152,7.758,7.757l6.261,0.93l-0.93-6.261C431.672,477.119,428.593,474.04,424.521,473.435"/>
	<path display="inline" clip-path="url(#SVGID_2_)" fill="#2B6868" d="M367.011,470.611l-8.963-1.331l1.33,8.963
		c0.866,5.831,5.275,10.238,11.106,11.104l8.963,1.331l-1.332-8.963C377.25,475.884,372.841,471.476,367.011,470.611"/>
	<path display="inline" clip-path="url(#SVGID_2_)" fill="#2B6868" d="M323.955,482.239c-1.127-7.588-6.864-13.326-14.453-14.453
		l-11.665-1.731l1.732,11.665c1.127,7.589,6.864,13.326,14.453,14.452l11.665,1.733L323.955,482.239z"/>
	<path display="inline" clip-path="url(#SVGID_2_)" fill="#2B6868" d="M369.001,200.057l2.89-2.143l-2.89-2.143
		c-1.88-1.394-4.356-1.394-6.236,0l-2.891,2.143l2.891,2.143C364.646,201.451,367.122,201.451,369.001,200.057"/>
	<path display="inline" clip-path="url(#SVGID_2_)" fill="#2B6868" d="M331.073,241.979l5.085-3.77l-5.085-3.769
		c-3.308-2.453-7.663-2.453-10.97,0l-5.085,3.769l5.085,3.77C323.411,244.432,327.766,244.432,331.073,241.979"/>
	<path display="inline" clip-path="url(#SVGID_2_)" fill="#2B6868" d="M270.162,278.504l7.279,5.397
		c4.735,3.51,10.97,3.511,15.705-0.001l7.279-5.396l-7.279-5.397c-4.735-3.51-10.97-3.511-15.705,0L270.162,278.504z"/>
	<path display="inline" clip-path="url(#SVGID_2_)" fill="#2B6868" d="M255.218,325.823l9.473-7.023l-9.473-7.024
		c-6.163-4.568-14.277-4.568-20.439,0l-9.474,7.024l9.473,7.023C240.941,330.391,249.055,330.391,255.218,325.823"/>
	<path display="inline" clip-path="url(#SVGID_2_)" fill="#2B6868" d="M-10.948,287.582l10.114-6.064
		c6.579-3.945,9.685-11.442,7.822-18.884l-2.864-11.44l-10.114,6.064c-6.58,3.945-9.685,11.442-7.822,18.883L-10.948,287.582z"/>
	<path display="inline" clip-path="url(#SVGID_2_)" fill="#2B6868" d="M450.293,324.154l-3.489,0.874l1.85,3.086
		c1.204,2.007,3.49,2.954,5.761,2.386l3.49-0.874l-1.849-3.086C454.852,324.533,452.564,323.585,450.293,324.154"/>
	<path display="inline" clip-path="url(#SVGID_2_)" fill="#2B6868" d="M396.081,343.552l-6.14,1.537l3.255,5.429
		c2.117,3.531,6.141,5.198,10.135,4.198l6.141-1.537l-3.256-5.43C404.099,344.219,400.075,342.552,396.081,343.552"/>
	<path display="inline" clip-path="url(#SVGID_2_)" fill="#2B6868" d="M352.248,378.932l8.79-2.2l-4.66-7.771
		c-3.031-5.055-8.791-7.442-14.509-6.01l-8.79,2.201l4.66,7.771C340.77,377.978,346.53,380.365,352.248,378.932"/>
	<path display="inline" clip-path="url(#SVGID_2_)" fill="#2B6868" d="M301.165,403.149l11.44-2.863l-6.064-10.115
		c-3.946-6.579-11.442-9.685-18.884-7.821l-11.44,2.863l6.064,10.114C286.226,401.907,293.722,405.011,301.165,403.149"/>
	<path display="inline" clip-path="url(#SVGID_2_)" fill="#2B6868" d="M240.171,112.23l1.85-3.086l-3.49-0.874
		c-2.271-0.568-4.558,0.379-5.761,2.387l-1.851,3.086l3.49,0.873C236.681,115.185,238.968,114.237,240.171,112.23"/>
	<path display="inline" clip-path="url(#SVGID_2_)" fill="#2B6868" d="M221.173,165.475l3.255-5.428l-6.14-1.537
		c-3.994-1-8.018,0.666-10.136,4.198l-3.254,5.428l6.14,1.538C215.032,170.673,219.056,169.007,221.173,165.475"/>
	<path display="inline" clip-path="url(#SVGID_2_)" fill="#2B6868" d="M202.176,218.72l4.66-7.771l-8.79-2.201
		c-5.719-1.431-11.479,0.955-14.51,6.01l-4.66,7.772l8.791,2.2C193.385,226.161,199.145,223.776,202.176,218.72"/>
	<path display="inline" clip-path="url(#SVGID_2_)" fill="#2B6868" d="M158.919,266.809l-6.065,10.115l11.44,2.863
		c7.442,1.863,14.939-1.242,18.883-7.822l6.065-10.114l-11.44-2.864C170.36,257.124,162.864,260.229,158.919,266.809"/>
	<path display="inline" clip-path="url(#SVGID_2_)" fill="#2B6868" d="M349.04,579.697l-7.772-4.66l-2.201,8.79
		c-1.43,5.718,0.955,11.479,6.011,14.51l7.771,4.66l2.201-8.791C356.48,588.488,354.095,582.728,349.04,579.697"/>
	<path display="inline" clip-path="url(#SVGID_2_)" fill="#2B6868" d="M296.989,555.08l-10.115-6.064l-2.864,11.44
		c-1.862,7.441,1.243,14.938,7.822,18.883l10.115,6.065l2.864-11.441C306.674,566.521,303.568,559.025,296.989,555.08"/>
	<path display="inline" clip-path="url(#SVGID_2_)" fill="#2B6868" d="M6.046,92.527c2.204-0.789,3.579-2.847,3.464-5.185
		l-0.175-3.594l-3.388,1.213c-2.204,0.789-3.579,2.847-3.464,5.185l0.176,3.594L6.046,92.527z"/>
	<path display="inline" clip-path="url(#SVGID_2_)" fill="#2B6868" d="M17.201,151.29c3.876-1.388,6.296-5.009,6.095-9.122
		l-0.31-6.322l-5.959,2.133c-3.877,1.388-6.297,5.01-6.095,9.122l0.31,6.322L17.201,151.29z"/>
	<path display="inline" clip-path="url(#SVGID_2_)" fill="#2B6868" d="M19.381,204.056l0.443,9.051l8.531-3.054
		c5.55-1.987,9.014-7.171,8.726-13.058l-0.444-9.051l-8.531,3.054C22.557,192.985,19.093,198.169,19.381,204.056"/>
	<path display="inline" clip-path="url(#SVGID_2_)" fill="#2B6868" d="M27.831,261.011l0.577,11.779l11.103-3.974
		c7.222-2.586,11.731-9.333,11.355-16.995l-0.576-11.779l-11.104,3.975C31.964,246.602,27.456,253.349,27.831,261.011"/>
	<path display="inline" clip-path="url(#SVGID_2_)" fill="#2B6868" d="M476.456,405.671l3.594-0.176l-1.213-3.388
		c-0.789-2.203-2.847-3.578-5.186-3.464l-3.594,0.176l1.213,3.388C472.06,404.411,474.118,405.786,476.456,405.671"/>
	<path display="inline" clip-path="url(#SVGID_2_)" fill="#2B6868" d="M421.629,419.457l6.322-0.309l-2.133-5.96
		c-1.388-3.876-5.009-6.296-9.121-6.096l-6.322,0.311l2.132,5.959C413.896,417.239,417.516,419.659,421.629,419.457"/>
	<path display="inline" clip-path="url(#SVGID_2_)" fill="#2B6868" d="M359.742,415.542l-9.051,0.442l3.054,8.532
		c1.987,5.549,7.171,9.014,13.059,8.725l9.05-0.442l-3.054-8.532C370.813,418.717,365.629,415.254,359.742,415.542"/>
	<path display="inline" clip-path="url(#SVGID_2_)" fill="#2B6868" d="M311.977,447.027l11.779-0.576l-3.975-11.104
		c-2.586-7.223-9.332-11.731-16.994-11.355l-11.779,0.577l3.974,11.104C297.567,442.894,304.313,447.403,311.977,447.027"/>
	<path display="inline" clip-path="url(#SVGID_2_)" fill="#2B6868" d="M308.912,149.799l2.417-2.665l-3.253-1.538
		c-2.116-1.001-4.544-0.518-6.116,1.216l-2.417,2.666l3.253,1.538C304.912,152.016,307.339,151.533,308.912,149.799"/>
	<path display="inline" clip-path="url(#SVGID_2_)" fill="#2B6868" d="M279.891,198.314l4.251-4.689l-5.722-2.706
		c-3.723-1.759-7.994-0.91-10.759,2.141l-4.252,4.689l5.722,2.706C272.854,202.215,277.125,201.366,279.891,198.314"/>
	<path display="inline" clip-path="url(#SVGID_2_)" fill="#2B6868" d="M250.87,246.83l6.087-6.713l-8.192-3.873
		c-5.329-2.519-11.444-1.303-15.403,3.064l-6.087,6.713l8.192,3.873C240.796,252.413,246.911,251.198,250.87,246.83"/>
	<path display="inline" clip-path="url(#SVGID_2_)" fill="#2B6868" d="M199.063,285.556l-7.921,8.737l10.661,5.041
		c6.936,3.277,14.894,1.696,20.047-3.988l7.922-8.737l-10.663-5.041C212.174,278.291,204.216,279.872,199.063,285.556"/>
	<path display="inline" clip-path="url(#SVGID_2_)" fill="#2B6868" d="M277.188,625.932l5.041-10.662
		c3.278-6.935,1.696-14.894-3.988-20.046l-8.737-7.922l-5.041,10.662c-3.279,6.935-1.696,14.894,3.988,20.047L277.188,625.932z"/>
	<path display="inline" clip-path="url(#SVGID_2_)" fill="#2B6868" d="M418.132,261.072l3.253-1.538l-2.417-2.666
		c-1.572-1.733-4-2.216-6.116-1.216l-3.253,1.538l2.417,2.665C413.588,261.589,416.016,262.073,418.132,261.072"/>
	<path display="inline" clip-path="url(#SVGID_2_)" fill="#2B6868" d="M372.754,294.789l5.722-2.705l-4.251-4.69
		c-2.766-3.05-7.037-3.9-10.76-2.14l-5.722,2.706l4.251,4.689C364.76,295.699,369.031,296.549,372.754,294.789"/>
	<path display="inline" clip-path="url(#SVGID_2_)" fill="#2B6868" d="M311.973,325.442c3.96,4.367,10.074,5.583,15.403,3.064
		l8.192-3.873l-6.086-6.714c-3.959-4.366-10.074-5.583-15.403-3.063l-8.192,3.873L311.973,325.442z"/>
	<path display="inline" clip-path="url(#SVGID_2_)" fill="#2B6868" d="M281.999,362.223l10.662-5.04l-7.922-8.737
		c-5.152-5.684-13.111-7.267-20.046-3.988l-10.662,5.041l7.921,8.737C267.105,363.919,275.063,365.502,281.999,362.223"/>
	<path display="inline" clip-path="url(#SVGID_2_)" fill="#2B6868" d="M165.423,88.793l1.213-3.387l-3.594-0.176
		c-2.338-0.115-4.396,1.26-5.185,3.464l-1.213,3.388l3.594,0.176C162.576,92.372,164.635,90.997,165.423,88.793"/>
	<path display="inline" clip-path="url(#SVGID_2_)" fill="#2B6868" d="M157.178,144.721l2.133-5.959l-6.322-0.31
		c-4.113-0.201-7.734,2.218-9.122,6.095l-2.132,5.959l6.321,0.31C152.168,151.017,155.79,148.598,157.178,144.721"/>
	<path display="inline" clip-path="url(#SVGID_2_)" fill="#2B6868" d="M148.932,200.649l3.055-8.531l-9.051-0.443
		c-5.888-0.289-11.072,3.175-13.058,8.725l-3.055,8.531l9.051,0.444C141.762,209.664,146.946,206.2,148.932,200.649"/>
	<path display="inline" clip-path="url(#SVGID_2_)" fill="#2B6868" d="M140.687,256.578l3.975-11.103l-11.779-0.577
		c-7.663-0.375-14.41,4.133-16.995,11.355l-3.975,11.104l11.779,0.577C131.355,268.309,138.102,263.801,140.687,256.578"/>
	<path display="inline" clip-path="url(#SVGID_2_)" fill="#2B6868" d="M475.104,554.018l-3.388-1.213l-0.177,3.594
		c-0.113,2.338,1.262,4.396,3.465,5.185l3.388,1.212l0.176-3.593C478.683,556.865,477.308,554.807,475.104,554.018"/>
	<path display="inline" clip-path="url(#SVGID_2_)" fill="#2B6868" d="M419.25,540.028l-5.959-2.133l-0.31,6.322
		c-0.201,4.112,2.218,7.732,6.095,9.121l5.959,2.134l0.31-6.323C425.546,545.038,423.127,541.417,419.25,540.028"/>
	<path display="inline" clip-path="url(#SVGID_2_)" fill="#2B6868" d="M371.679,548.148l0.443-9.052
		c0.288-5.887-3.175-11.071-8.725-13.058l-8.532-3.054l-0.443,9.051c-0.288,5.887,3.176,11.071,8.726,13.058L371.679,548.148z"/>
	<path display="inline" clip-path="url(#SVGID_2_)" fill="#2B6868" d="M307.219,536.848l11.103,3.975l0.577-11.779
		c0.375-7.663-4.133-14.408-11.355-16.995l-11.104-3.974l-0.576,11.779C295.489,527.516,299.996,534.263,307.219,536.848"/>
</g>
<g>
	<defs>
		<polygon id="SVGID_3_" points="841.89,596.275 -2.805,595.275 -2.805,0 841.89,1 		"/>
	</defs>
	<clipPath id="SVGID_4_">
		<use xlink:href="#SVGID_3_"  overflow="visible"/>
	</clipPath>
	<path clip-path="url(#SVGID_4_)" fill="#2B6868" d="M751.546,80.388l-0.524-3.559l3.548,0.529c2.324,0.344,4.076,2.094,4.425,4.409
		l0.525,3.559l-3.563-0.529C753.646,84.454,751.896,82.703,751.546,80.388"/>
	<path clip-path="url(#SVGID_4_)" fill="#2B6868" d="M748.728,136.851l-0.938-6.261l6.271,0.93c4.073,0.605,7.146,3.684,7.751,7.757
		l0.922,6.261l-6.255-0.929C752.405,144.002,749.334,140.924,748.728,136.851"/>
	<path clip-path="url(#SVGID_4_)" fill="#2B6868" d="M745.896,193.313l-1.321-8.963l8.961,1.331
		c5.825,0.866,10.233,5.274,11.093,11.105l1.337,8.963l-8.962-1.331C751.18,203.552,746.771,199.144,745.896,193.313"/>
	<path clip-path="url(#SVGID_4_)" fill="#2B6868" d="M743.079,249.775l-1.735-11.665l11.666,1.732
		c7.593,1.127,13.323,6.864,14.452,14.452l1.735,11.666l-11.667-1.732C749.938,263.101,744.191,257.364,743.079,249.775"/>
	<path clip-path="url(#SVGID_4_)" fill="#2B6868" d="M352.653,480.667c0.334-2.314,2.084-4.065,4.409-4.409l3.55-0.528l-0.526,3.559
		c-0.351,2.315-2.102,4.066-4.409,4.409l-3.566,0.529L352.653,480.667z"/>
	<path clip-path="url(#SVGID_4_)" fill="#2B6868" d="M414.567,473.434l6.255-0.931l-0.924,6.262
		c-0.604,4.073-3.691,7.152-7.751,7.757l-6.271,0.93l0.924-6.261C407.42,477.118,410.493,474.039,414.567,473.434"/>
	<path clip-path="url(#SVGID_4_)" fill="#2B6868" d="M472.073,470.61l8.96-1.331l-1.32,8.963
		c-0.876,5.831-5.285,10.238-11.109,11.104l-8.962,1.331l1.322-8.963C461.838,475.883,466.247,471.475,472.073,470.61"/>
	<path clip-path="url(#SVGID_4_)" fill="#2B6868" d="M515.126,482.238c1.129-7.588,6.875-13.326,14.451-14.453l11.667-1.731
		l-1.735,11.665c-1.113,7.589-6.859,13.326-14.451,14.452l-11.651,1.733L515.126,482.238z"/>
	<path clip-path="url(#SVGID_4_)" fill="#2B6868" d="M470.083,200.056l-2.896-2.143l2.896-2.143c1.879-1.394,4.361-1.394,6.24,0
		l2.88,2.143l-2.88,2.143C474.444,201.45,471.962,201.45,470.083,200.056"/>
	<path clip-path="url(#SVGID_4_)" fill="#2B6868" d="M508.013,241.978l-5.077-3.77l5.077-3.769c3.311-2.453,7.655-2.453,10.965,0
		l5.095,3.769l-5.095,3.77C515.668,244.431,511.323,244.431,508.013,241.978"/>
	<path clip-path="url(#SVGID_4_)" fill="#2B6868" d="M568.923,278.503l-7.273,5.397c-4.743,3.51-10.966,3.511-15.71-0.001
		l-7.274-5.396l7.274-5.397c4.744-3.51,10.967-3.511,15.71,0L568.923,278.503z"/>
	<path clip-path="url(#SVGID_4_)" fill="#2B6868" d="M583.868,325.822l-9.47-7.023l9.47-7.024c6.16-4.568,14.277-4.568,20.437,0
		l9.47,7.024l-9.47,7.023C598.146,330.39,590.028,330.39,583.868,325.822"/>
	<path clip-path="url(#SVGID_4_)" fill="#2B6868" d="M850.035,287.581l-10.122-6.064c-6.574-3.945-9.678-11.442-7.814-18.884
		l2.864-11.44l10.107,6.064c6.59,3.945,9.693,11.442,7.83,18.883L850.035,287.581z"/>
	<path clip-path="url(#SVGID_4_)" fill="#2B6868" d="M388.799,324.153l3.486,0.874l-1.847,3.086
		c-1.209,2.007-3.501,2.954-5.761,2.386l-3.503-0.874l1.863-3.086C384.23,324.532,386.522,323.584,388.799,324.153"/>
	<path clip-path="url(#SVGID_4_)" fill="#2B6868" d="M443.01,343.551l6.128,1.537l-3.246,5.429
		c-2.118,3.531-6.146,5.198-10.141,4.198l-6.143-1.537l3.262-5.43C434.988,344.218,439.015,342.551,443.01,343.551"/>
	<path clip-path="url(#SVGID_4_)" fill="#2B6868" d="M486.843,378.931l-8.802-2.2l4.664-7.771c3.039-5.055,8.801-7.442,14.515-6.01
		l8.786,2.201l-4.664,7.771C498.318,377.977,492.558,380.364,486.843,378.931"/>
	<path clip-path="url(#SVGID_4_)" fill="#2B6868" d="M537.917,403.148l-11.443-2.863l6.064-10.115
		c3.948-6.579,11.442-9.685,18.893-7.821l11.445,2.863l-6.065,10.114C552.863,401.906,545.367,405.01,537.917,403.148"/>
	<path clip-path="url(#SVGID_4_)" fill="#2B6868" d="M598.908,112.229l-1.846-3.086l3.486-0.874
		c2.277-0.568,4.567,0.379,5.761,2.387l1.862,3.086l-3.501,0.873C602.411,115.184,600.117,114.236,598.908,112.229"/>
	<path clip-path="url(#SVGID_4_)" fill="#2B6868" d="M617.912,165.474l-3.263-5.428l6.145-1.537c3.996-1,8.021,0.666,10.138,4.198
		l3.248,5.428l-6.127,1.538C624.057,170.672,620.03,169.006,617.912,165.474"/>
	<path clip-path="url(#SVGID_4_)" fill="#2B6868" d="M636.917,218.719l-4.663-7.771l8.785-2.201
		c5.716-1.431,11.476,0.955,14.516,6.01l4.648,7.772l-8.786,2.2C645.702,226.16,639.941,223.775,636.917,218.719"/>
	<path clip-path="url(#SVGID_4_)" fill="#2B6868" d="M680.162,266.808l6.064,10.115l-11.43,2.863
		c-7.447,1.863-14.944-1.242-18.892-7.822l-6.064-10.114l11.444-2.864C668.719,257.123,676.215,260.228,680.162,266.808"/>
	<path clip-path="url(#SVGID_4_)" fill="#2B6868" d="M490.042,579.696l7.783-4.66l2.195,8.79c1.434,5.718-0.954,11.479-6.015,14.51
		l-7.768,4.66l-2.196-8.791C482.609,588.487,484.996,582.727,490.042,579.696"/>
	<path clip-path="url(#SVGID_4_)" fill="#2B6868" d="M542.104,555.079l10.106-6.064l2.865,11.44
		c1.861,7.441-1.241,14.938-7.816,18.883l-10.121,6.065l-2.866-11.441C532.412,566.52,535.515,559.024,542.104,555.079"/>
	<path clip-path="url(#SVGID_4_)" fill="#2B6868" d="M833.037,92.526c-2.195-0.789-3.581-2.847-3.454-5.185l0.177-3.594l3.373,1.213
		c2.213,0.789,3.582,2.847,3.469,5.185l-0.174,3.594L833.037,92.526z"/>
	<path clip-path="url(#SVGID_4_)" fill="#2B6868" d="M821.881,151.289c-3.867-1.388-6.287-5.009-6.097-9.122l0.318-6.322
		l5.952,2.133c3.884,1.388,6.304,5.01,6.097,9.122l-0.303,6.322L821.881,151.289z"/>
	<path clip-path="url(#SVGID_4_)" fill="#2B6868" d="M819.699,204.055l-0.445,9.051l-8.533-3.054
		c-5.537-1.987-9.007-7.171-8.721-13.058l0.446-9.051l8.53,3.054C816.531,192.984,819.986,198.168,819.699,204.055"/>
	<path clip-path="url(#SVGID_4_)" fill="#2B6868" d="M811.247,261.01l-0.572,11.779l-11.094-3.974
		c-7.226-2.586-11.729-9.333-11.364-16.995l0.572-11.779l11.111,3.975C807.126,246.601,811.63,253.348,811.247,261.01"/>
	<path clip-path="url(#SVGID_4_)" fill="#2B6868" d="M362.633,405.67l-3.598-0.176l1.21-3.388c0.795-2.203,2.848-3.578,5.188-3.464
		l3.598,0.176l-1.21,3.388C367.025,404.41,364.972,405.785,362.633,405.67"/>
	<path clip-path="url(#SVGID_4_)" fill="#2B6868" d="M417.464,419.456l-6.335-0.309l2.133-5.96c1.4-3.876,5.013-6.296,9.119-6.096
		l6.32,0.311l-2.116,5.959C425.182,417.238,421.57,419.658,417.464,419.456"/>
	<path clip-path="url(#SVGID_4_)" fill="#2B6868" d="M479.346,415.542l9.041,0.442l-3.039,8.532
		c-1.989,5.549-7.179,9.014-13.069,8.725l-9.04-0.442l3.041-8.532C468.269,418.716,473.457,415.253,479.346,415.542"/>
	<path clip-path="url(#SVGID_4_)" fill="#2B6868" d="M527.11,447.026l-11.777-0.576l3.963-11.104
		c2.594-7.223,9.344-11.731,16.999-11.355l11.777,0.577l-3.962,11.104C541.516,442.893,534.767,447.402,527.11,447.026"/>
	<path clip-path="url(#SVGID_4_)" fill="#2B6868" d="M530.182,149.798l-2.419-2.665l3.248-1.538
		c2.117-1.001,4.552-0.518,6.111,1.216l2.421,2.666l-3.248,1.538C534.178,152.015,531.741,151.532,530.182,149.798"/>
	<path clip-path="url(#SVGID_4_)" fill="#2B6868" d="M559.198,198.313l-4.251-4.689l5.715-2.706c3.726-1.759,7.991-0.91,10.76,2.141
		l4.25,4.689l-5.714,2.706C566.233,202.214,561.968,201.365,559.198,198.313"/>
	<path clip-path="url(#SVGID_4_)" fill="#2B6868" d="M588.213,246.829l-6.08-6.713l8.182-3.873
		c5.331-2.519,11.444-1.303,15.406,3.064l6.097,6.713l-8.197,3.873C598.289,252.412,592.178,251.197,588.213,246.829"/>
	<path clip-path="url(#SVGID_4_)" fill="#2B6868" d="M640.02,285.555l7.928,8.737l-10.664,5.041
		c-6.94,3.277-14.898,1.696-20.054-3.988l-7.91-8.737l10.663-5.041C626.906,278.29,634.864,279.871,640.02,285.555"/>
	<path clip-path="url(#SVGID_4_)" fill="#2B6868" d="M561.903,625.931l-5.045-10.662c-3.278-6.935-1.703-14.894,3.979-20.046
		l8.737-7.922l5.046,10.662c3.279,6.935,1.703,14.894-3.979,20.047L561.903,625.931z"/>
	<path clip-path="url(#SVGID_4_)" fill="#2B6868" d="M420.95,261.071l-3.247-1.538l2.418-2.666c1.577-1.733,3.996-2.216,6.112-1.216
		l3.246,1.538l-2.402,2.665C425.501,261.588,423.066,262.072,420.95,261.071"/>
	<path clip-path="url(#SVGID_4_)" fill="#2B6868" d="M466.327,294.788l-5.716-2.705l4.251-4.69c2.77-3.05,7.035-3.9,10.761-2.14
		l5.712,2.706l-4.248,4.689C474.316,295.698,470.052,296.548,466.327,294.788"/>
	<path clip-path="url(#SVGID_4_)" fill="#2B6868" d="M527.11,325.441c-3.963,4.367-10.074,5.583-15.406,3.064l-8.18-3.873
		l6.079-6.714c3.962-4.366,10.074-5.583,15.406-3.063l8.181,3.873L527.11,325.441z"/>
	<path clip-path="url(#SVGID_4_)" fill="#2B6868" d="M557.082,362.222l-10.665-5.04l7.926-8.737
		c5.157-5.684,13.117-7.267,20.056-3.988l10.663,5.041l-7.925,8.737C571.979,363.918,564.021,365.501,557.082,362.222"/>
	<path clip-path="url(#SVGID_4_)" fill="#2B6868" d="M673.667,88.792l-1.226-3.387l3.598-0.176c2.341-0.115,4.394,1.26,5.189,3.464
		l1.209,3.388l-3.598,0.176C676.517,92.371,674.447,90.996,673.667,88.792"/>
	<path clip-path="url(#SVGID_4_)" fill="#2B6868" d="M681.913,144.72l-2.134-5.959l6.317-0.31c4.108-0.201,7.735,2.218,9.122,6.095
		l2.133,5.959l-6.32,0.31C686.91,151.016,683.296,148.597,681.913,144.72"/>
	<path clip-path="url(#SVGID_4_)" fill="#2B6868" d="M690.157,200.648l-3.056-8.531l9.056-0.443
		c5.873-0.289,11.062,3.175,13.052,8.725l3.056,8.531l-9.056,0.444C697.319,209.663,692.146,206.199,690.157,200.648"/>
	<path clip-path="url(#SVGID_4_)" fill="#2B6868" d="M698.402,256.577l-3.98-11.103l11.779-0.577
		c7.671-0.375,14.403,4.133,16.998,11.355l3.979,11.104l-11.777,0.577C707.729,268.308,700.979,263.8,698.402,256.577"/>
	<path clip-path="url(#SVGID_4_)" fill="#2B6868" d="M363.986,554.017l3.389-1.213l0.175,3.594c0.111,2.338-1.273,4.396-3.47,5.185
		l-3.39,1.212l-0.176-3.593C360.403,556.864,361.772,554.806,363.986,554.017"/>
	<path clip-path="url(#SVGID_4_)" fill="#2B6868" d="M419.835,540.027l5.953-2.133l0.318,6.322c0.206,4.112-2.213,7.732-6.098,9.121
		l-5.951,2.134l-0.318-6.323C413.532,545.037,415.951,541.416,419.835,540.027"/>
	<path clip-path="url(#SVGID_4_)" fill="#2B6868" d="M467.409,548.147l-0.446-9.052c-0.286-5.887,3.184-11.071,8.724-13.058
		l8.531-3.054l0.445,9.051c0.285,5.887-3.183,11.071-8.722,13.058L467.409,548.147z"/>
	<path clip-path="url(#SVGID_4_)" fill="#2B6868" d="M531.871,536.847l-11.111,3.975l-0.571-11.779
		c-0.383-7.663,4.138-14.408,11.347-16.995l11.109-3.974l0.573,11.779C543.6,527.515,539.096,534.262,531.871,536.847"/>
</g>
</svg>
