<?xml version="1.0" encoding="utf-8"?>
<!-- Generator: Adobe Illustrator 16.0.0, SVG Export Plug-In . SVG Version: 6.00 Build 0)  -->
<!DOCTYPE svg PUBLIC "-//W3C//DTD SVG 1.1//EN" "http://www.w3.org/Graphics/SVG/1.1/DTD/svg11.dtd">
<svg version="1.1" id="Layer_1" xmlns="http://www.w3.org/2000/svg" xmlns:xlink="http://www.w3.org/1999/xlink" x="0px" y="0px"
	 width="841.89px" height="595.276px" viewBox="0 0 841.89 595.276" enable-background="new 0 0 841.89 595.276"
	 xml:space="preserve">
<g>
	<defs>
		<rect id="SVGID_1_" width="841.89" height="595.275"/>
	</defs>
	<clipPath id="SVGID_2_">
		<use xlink:href="#SVGID_1_"  overflow="visible"/>
	</clipPath>
	<path clip-path="url(#SVGID_2_)" fill="#2B6868" d="M754.351,80.388l-0.524-3.559l3.548,0.529c2.324,0.344,4.076,2.094,4.425,4.409
		l0.525,3.559l-3.563-0.529C756.451,84.454,754.7,82.703,754.351,80.388"/>
	<path clip-path="url(#SVGID_2_)" fill="#2B6868" d="M751.532,136.851l-0.938-6.261l6.271,0.93c4.073,0.605,7.146,3.684,7.751,7.757
		l0.922,6.261l-6.255-0.929C755.21,144.002,752.139,140.924,751.532,136.851"/>
	<path clip-path="url(#SVGID_2_)" fill="#2B6868" d="M748.701,193.313l-1.321-8.963l8.961,1.331
		c5.825,0.866,10.233,5.274,11.093,11.105l1.337,8.963l-8.962-1.331C753.984,203.552,749.575,199.144,748.701,193.313"/>
	<path clip-path="url(#SVGID_2_)" fill="#2B6868" d="M745.884,249.775l-1.735-11.665l11.666,1.732
		c7.593,1.127,13.323,6.864,14.452,14.452l1.735,11.666l-11.667-1.732C752.743,263.101,746.996,257.364,745.884,249.775"/>
	<path clip-path="url(#SVGID_2_)" fill="#2B6868" d="M355.458,480.667c0.334-2.314,2.084-4.065,4.409-4.409l3.55-0.528l-0.526,3.559
		c-0.351,2.315-2.102,4.066-4.409,4.409l-3.566,0.529L355.458,480.667z"/>
	<path clip-path="url(#SVGID_2_)" fill="#2B6868" d="M417.372,473.434l6.255-0.931l-0.924,6.262
		c-0.604,4.073-3.691,7.152-7.751,7.757l-6.271,0.93l0.924-6.261C410.225,477.118,413.297,474.039,417.372,473.434"/>
	<path clip-path="url(#SVGID_2_)" fill="#2B6868" d="M474.878,470.61l8.96-1.331l-1.32,8.963
		c-0.876,5.831-5.285,10.238-11.109,11.104l-8.962,1.331l1.322-8.963C464.643,475.883,469.052,471.475,474.878,470.61"/>
	<path clip-path="url(#SVGID_2_)" fill="#2B6868" d="M517.931,482.238c1.129-7.588,6.875-13.326,14.451-14.453l11.667-1.731
		l-1.735,11.665c-1.113,7.589-6.859,13.326-14.451,14.452l-11.651,1.733L517.931,482.238z"/>
	<path clip-path="url(#SVGID_2_)" fill="#2B6868" d="M472.888,200.056l-2.896-2.143l2.896-2.143c1.879-1.394,4.361-1.394,6.24,0
		l2.88,2.143l-2.88,2.143C477.249,201.45,474.767,201.45,472.888,200.056"/>
	<path clip-path="url(#SVGID_2_)" fill="#2B6868" d="M510.817,241.978l-5.077-3.77l5.077-3.769c3.311-2.453,7.655-2.453,10.965,0
		l5.095,3.769l-5.095,3.77C518.473,244.431,514.128,244.431,510.817,241.978"/>
	<path clip-path="url(#SVGID_2_)" fill="#2B6868" d="M571.728,278.503l-7.273,5.397c-4.743,3.51-10.966,3.511-15.71-0.001
		l-7.274-5.396l7.274-5.397c4.744-3.51,10.967-3.511,15.71,0L571.728,278.503z"/>
	<path clip-path="url(#SVGID_2_)" fill="#2B6868" d="M586.673,325.822l-9.47-7.023l9.47-7.024c6.16-4.568,14.277-4.568,20.437,0
		l9.47,7.024l-9.47,7.023C600.95,330.39,592.833,330.39,586.673,325.822"/>
	<path clip-path="url(#SVGID_2_)" fill="#2B6868" d="M852.84,287.581l-10.122-6.064c-6.574-3.945-9.678-11.442-7.814-18.884
		l2.864-11.44l10.107,6.064c6.59,3.945,9.693,11.442,7.83,18.883L852.84,287.581z"/>
	<path clip-path="url(#SVGID_2_)" fill="#2B6868" d="M391.604,324.153l3.486,0.874l-1.847,3.086
		c-1.209,2.007-3.501,2.954-5.761,2.386l-3.503-0.874l1.863-3.086C387.035,324.532,389.327,323.584,391.604,324.153"/>
	<path clip-path="url(#SVGID_2_)" fill="#2B6868" d="M445.814,343.551l6.128,1.537l-3.246,5.429
		c-2.118,3.531-6.146,5.198-10.141,4.198l-6.143-1.537l3.262-5.43C437.793,344.218,441.819,342.551,445.814,343.551"/>
	<path clip-path="url(#SVGID_2_)" fill="#2B6868" d="M489.647,378.931l-8.802-2.2l4.664-7.771c3.039-5.055,8.801-7.442,14.515-6.01
		l8.786,2.201l-4.664,7.771C501.123,377.977,495.362,380.364,489.647,378.931"/>
	<path clip-path="url(#SVGID_2_)" fill="#2B6868" d="M540.722,403.148l-11.443-2.863l6.064-10.115
		c3.948-6.579,11.442-9.685,18.893-7.821l11.445,2.863l-6.065,10.114C555.668,401.906,548.172,405.01,540.722,403.148"/>
	<path clip-path="url(#SVGID_2_)" fill="#2B6868" d="M601.713,112.229l-1.846-3.086l3.486-0.874
		c2.277-0.568,4.567,0.379,5.761,2.387l1.862,3.086l-3.501,0.873C605.216,115.184,602.922,114.236,601.713,112.229"/>
	<path clip-path="url(#SVGID_2_)" fill="#2B6868" d="M620.717,165.474l-3.263-5.428l6.145-1.537c3.996-1,8.021,0.666,10.138,4.198
		l3.248,5.428l-6.127,1.538C626.861,170.672,622.835,169.006,620.717,165.474"/>
	<path clip-path="url(#SVGID_2_)" fill="#2B6868" d="M639.722,218.719l-4.663-7.771l8.785-2.201
		c5.716-1.431,11.476,0.955,14.516,6.01l4.648,7.772l-8.786,2.2C648.507,226.16,642.746,223.775,639.722,218.719"/>
	<path clip-path="url(#SVGID_2_)" fill="#2B6868" d="M682.967,266.808l6.064,10.115l-11.43,2.863
		c-7.447,1.863-14.944-1.242-18.892-7.822l-6.064-10.114l11.444-2.864C671.523,257.123,679.02,260.228,682.967,266.808"/>
	<path clip-path="url(#SVGID_2_)" fill="#2B6868" d="M492.847,579.696l7.783-4.66l2.195,8.79c1.434,5.718-0.954,11.479-6.015,14.51
		l-7.768,4.66l-2.196-8.791C485.414,588.487,487.801,582.727,492.847,579.696"/>
	<path clip-path="url(#SVGID_2_)" fill="#2B6868" d="M544.909,555.079l10.106-6.064l2.865,11.44
		c1.861,7.441-1.241,14.938-7.816,18.883l-10.121,6.065l-2.866-11.441C535.217,566.52,538.319,559.024,544.909,555.079"/>
	<path clip-path="url(#SVGID_2_)" fill="#2B6868" d="M835.842,92.526c-2.195-0.789-3.581-2.847-3.454-5.185l0.177-3.594l3.373,1.213
		c2.213,0.789,3.582,2.847,3.469,5.185l-0.174,3.594L835.842,92.526z"/>
	<path clip-path="url(#SVGID_2_)" fill="#2B6868" d="M824.686,151.289c-3.867-1.388-6.287-5.009-6.097-9.122l0.318-6.322
		l5.952,2.133c3.884,1.388,6.304,5.01,6.097,9.122l-0.303,6.322L824.686,151.289z"/>
	<path clip-path="url(#SVGID_2_)" fill="#2B6868" d="M822.504,204.055l-0.445,9.051l-8.533-3.054
		c-5.537-1.987-9.007-7.171-8.721-13.058l0.446-9.051l8.53,3.054C819.336,192.984,822.791,198.168,822.504,204.055"/>
	<path clip-path="url(#SVGID_2_)" fill="#2B6868" d="M814.052,261.01l-0.572,11.779l-11.094-3.974
		c-7.226-2.586-11.729-9.333-11.364-16.995l0.572-11.779l11.111,3.975C809.931,246.601,814.435,253.348,814.052,261.01"/>
	<path clip-path="url(#SVGID_2_)" fill="#2B6868" d="M365.438,405.67l-3.598-0.176l1.21-3.388c0.795-2.203,2.848-3.578,5.188-3.464
		l3.598,0.176l-1.21,3.388C369.83,404.41,367.776,405.785,365.438,405.67"/>
	<path clip-path="url(#SVGID_2_)" fill="#2B6868" d="M420.269,419.456l-6.335-0.309l2.133-5.96c1.4-3.876,5.013-6.296,9.119-6.096
		l6.32,0.311l-2.116,5.959C427.986,417.238,424.375,419.658,420.269,419.456"/>
	<path clip-path="url(#SVGID_2_)" fill="#2B6868" d="M482.15,415.542l9.041,0.442l-3.039,8.532
		c-1.989,5.549-7.179,9.014-13.069,8.725l-9.04-0.442l3.041-8.532C471.073,418.716,476.262,415.253,482.15,415.542"/>
	<path clip-path="url(#SVGID_2_)" fill="#2B6868" d="M529.915,447.026l-11.777-0.576l3.963-11.104
		c2.594-7.223,9.344-11.731,16.999-11.355l11.777,0.577l-3.962,11.104C544.32,442.893,537.571,447.402,529.915,447.026"/>
	<path clip-path="url(#SVGID_2_)" fill="#2B6868" d="M532.986,149.798l-2.419-2.665l3.248-1.538
		c2.117-1.001,4.552-0.518,6.111,1.216l2.421,2.666l-3.248,1.538C536.982,152.015,534.546,151.532,532.986,149.798"/>
	<path clip-path="url(#SVGID_2_)" fill="#2B6868" d="M562.003,198.313l-4.251-4.689l5.715-2.706c3.726-1.759,7.991-0.91,10.76,2.141
		l4.25,4.689l-5.714,2.706C569.038,202.214,564.772,201.365,562.003,198.313"/>
	<path clip-path="url(#SVGID_2_)" fill="#2B6868" d="M591.018,246.829l-6.08-6.713l8.182-3.873
		c5.331-2.519,11.444-1.303,15.406,3.064l6.097,6.713l-8.197,3.873C601.094,252.412,594.982,251.197,591.018,246.829"/>
	<path clip-path="url(#SVGID_2_)" fill="#2B6868" d="M642.824,285.555l7.928,8.737l-10.664,5.041
		c-6.94,3.277-14.898,1.696-20.054-3.988l-7.91-8.737l10.663-5.041C629.711,278.29,637.669,279.871,642.824,285.555"/>
	<path clip-path="url(#SVGID_2_)" fill="#2B6868" d="M564.708,625.931l-5.045-10.662c-3.278-6.935-1.703-14.894,3.979-20.046
		l8.737-7.922l5.046,10.662c3.279,6.935,1.703,14.894-3.979,20.047L564.708,625.931z"/>
	<path clip-path="url(#SVGID_2_)" fill="#2B6868" d="M423.755,261.071l-3.247-1.538l2.418-2.666
		c1.577-1.733,3.996-2.216,6.112-1.216l3.246,1.538l-2.402,2.665C428.306,261.588,425.871,262.072,423.755,261.071"/>
	<path clip-path="url(#SVGID_2_)" fill="#2B6868" d="M469.132,294.788l-5.716-2.705l4.251-4.69c2.77-3.05,7.035-3.9,10.761-2.14
		l5.712,2.706l-4.248,4.689C477.121,295.698,472.856,296.548,469.132,294.788"/>
	<path clip-path="url(#SVGID_2_)" fill="#2B6868" d="M529.915,325.441c-3.963,4.367-10.074,5.583-15.406,3.064l-8.18-3.873
		l6.079-6.714c3.962-4.366,10.074-5.583,15.406-3.063l8.181,3.873L529.915,325.441z"/>
	<path clip-path="url(#SVGID_2_)" fill="#2B6868" d="M559.887,362.222l-10.665-5.04l7.926-8.737
		c5.157-5.684,13.117-7.267,20.056-3.988l10.663,5.041l-7.925,8.737C574.784,363.918,566.825,365.501,559.887,362.222"/>
	<path clip-path="url(#SVGID_2_)" fill="#2B6868" d="M676.472,88.792l-1.226-3.387l3.598-0.176c2.341-0.115,4.394,1.26,5.189,3.464
		l1.209,3.388l-3.598,0.176C679.321,92.371,677.252,90.996,676.472,88.792"/>
	<path clip-path="url(#SVGID_2_)" fill="#2B6868" d="M684.718,144.72l-2.134-5.959l6.317-0.31c4.108-0.201,7.735,2.218,9.122,6.095
		l2.133,5.959l-6.32,0.31C689.715,151.016,686.101,148.597,684.718,144.72"/>
	<path clip-path="url(#SVGID_2_)" fill="#2B6868" d="M692.962,200.648l-3.056-8.531l9.056-0.443
		c5.873-0.289,11.062,3.175,13.052,8.725l3.056,8.531l-9.056,0.444C700.124,209.663,694.951,206.199,692.962,200.648"/>
	<path clip-path="url(#SVGID_2_)" fill="#2B6868" d="M701.207,256.577l-3.98-11.103l11.779-0.577
		c7.671-0.375,14.403,4.133,16.998,11.355l3.979,11.104l-11.777,0.577C710.533,268.308,703.783,263.8,701.207,256.577"/>
	<path clip-path="url(#SVGID_2_)" fill="#2B6868" d="M366.791,554.017l3.389-1.213l0.175,3.594c0.111,2.338-1.273,4.396-3.47,5.185
		l-3.39,1.212l-0.176-3.593C363.208,556.864,364.577,554.806,366.791,554.017"/>
	<path clip-path="url(#SVGID_2_)" fill="#2B6868" d="M422.64,540.027l5.953-2.133l0.318,6.322c0.206,4.112-2.213,7.732-6.098,9.121
		l-5.951,2.134l-0.318-6.323C416.336,545.037,418.756,541.416,422.64,540.027"/>
	<path clip-path="url(#SVGID_2_)" fill="#2B6868" d="M470.214,548.147l-0.446-9.052c-0.286-5.887,3.184-11.071,8.724-13.058
		l8.531-3.054l0.445,9.051c0.285,5.887-3.183,11.071-8.722,13.058L470.214,548.147z"/>
	<path clip-path="url(#SVGID_2_)" fill="#2B6868" d="M534.676,536.847l-11.111,3.975l-0.571-11.779
		c-0.383-7.663,4.138-14.408,11.347-16.995l11.109-3.974l0.573,11.779C546.404,527.515,541.9,534.262,534.676,536.847"/>
</g>
<path opacity="0.3" fill="#006852" d="M372.818,266.856c-62.021-9.547-115.907,21.997-163.004,57.116
	c-47.103-35.119-100.976-66.663-162.999-57.116c-0.442,0.076-0.413,0.658,0.03,0.685c60.721,3.945,117.708,42.232,149.617,66.162
	c-2.626,1.939-5.432,4.025-8.097,6.059c-5.983,4.83-11.999,9.643-18.092,14.352c-5.891-4.977-10.305-11.633-12.783-18.711
	c-0.493-1.459-0.936-2.936-1.438-4.436c-1.318,2.104-2.125,4.439-2.621,6.842c-1.578,8.361,1.52,16.977,7.486,23.412
	c-3.579,2.664-7.179,5.293-10.825,7.844c-2.538,1.785-7.195,4.266-9.309,4.777c-2.568,0.617-5.189,0.633-7.263-0.766
	c-3.624-2.443-3.299-7.676-6.279-10.762c-3.041-3.154-8.961-2.926-12.389-0.121c-3.429,2.805-4.535,7.447-3.757,11.6
	c1.992,10.637,14.961,17.305,26.682,16.381c11.492-0.898,20.476-7.279,33.552-16.641c0.052-0.033,0.964-0.766,2.409-1.932
	c6.12,5.857,10.021,13.311,12.283,21.471c5.41-9.18,3.156-20.357-3.415-28.586c1.364-1.102,2.771-2.219,4.228-3.393
	c0.846-0.578,1.701-1.17,2.552-1.771c2.525-1.773,5.085-3.666,7.689-5.623l12.737-9.785l12.735,9.785
	c2.615,1.957,5.175,3.85,7.689,5.623c0.863,0.602,1.703,1.193,2.551,1.771c1.469,1.174,2.864,2.291,4.231,3.393
	c-6.563,8.229-8.822,19.406-3.406,28.586c2.254-8.16,6.155-15.613,12.274-21.471c1.453,1.166,2.36,1.898,2.412,1.932
	c13.082,9.361,22.052,15.742,33.549,16.641c11.718,0.924,24.693-5.744,26.688-16.381c0.776-4.152-0.33-8.795-3.756-11.6
	c-3.429-2.805-9.349-3.033-12.389,0.121c-2.984,3.086-2.668,8.318-6.279,10.762c-2.077,1.398-4.7,1.383-7.261,0.766
	c-2.117-0.512-6.774-2.992-9.311-4.777c-3.655-2.551-7.257-5.18-10.826-7.844c5.966-6.436,9.065-15.051,7.487-23.412
	c-0.499-2.402-1.304-4.738-2.624-6.842c-0.498,1.5-0.939,2.977-1.443,4.436c-2.471,7.078-6.884,13.734-12.774,18.711
	c-6.097-4.709-12.115-9.521-18.093-14.352c-2.667-2.033-5.474-4.119-8.098-6.059c31.904-23.93,88.891-62.216,149.618-66.162
	C373.225,267.514,373.25,266.932,372.818,266.856"/>
<path opacity="0.3" fill="#006852" d="M173.753,140.797c-3.014,0.646-53.839,12.305-66.617,69.357l-1.292,5.818l3.659-4.913
	c17.11-22.894,34.55-33.586,46.158-38.518c12.126-5.135,20.777-5.435,22.605-5.435h0.098c-1.327,1.141-34.268,30.122-25.547,74.579
	l1.033,5.269l1.518-5.167c11.738-39.984,29.84-54.461,44.754-62.238c1.257,14.176,2.98,75.109-2.566,126.252l12.332,9.152
	l12.161-9.285c-5.532-51.145-3.799-111.951-2.542-126.119c14.926,7.784,33.01,22.268,44.757,62.238l1.512,5.167l1.031-5.269
	c8.744-44.546-24.341-73.548-25.538-74.579c1.323-0.09,10.173,0.13,22.703,5.435c11.607,4.932,29.034,15.624,46.153,38.532
	l3.669,4.905l-1.323-5.818c-12.749-57.097-63.675-68.736-66.591-69.364c0.782-0.551,17.133-11.22,65.45,3.388l4.446,1.345
	l-3.035-3.263c-29.668-31.88-74.536-23.355-79.381-22.308l0.073-0.138c1.842-3.683,9.041-12.456,23.896-21.904l4.53-2.889
	l-5.451,0.715c-24.385,3.17-37.762,13.722-40.81,17.446c-0.321-4.918-1.323-13.954-4.59-20.72l-1.178-2.503l-1.196,2.503
	c-3.27,6.766-4.286,15.802-4.592,20.72c-3.033-3.704-16.401-14.276-40.808-17.446l-5.464-0.715l4.543,2.889
	c14.699,9.351,21.928,18.03,23.961,22.042c-4.547-0.955-49.837-9.447-79.398,22.308l-3.029,3.263l4.437-1.345
	C156.733,129.528,173.004,140.268,173.753,140.797"/>
</svg>
