<svg width="245" height="245" viewBox="0 0 245 245" fill="none" xmlns="http://www.w3.org/2000/svg">
<path d="M123.597 1.13197L123.809 0L122.677 0.212244C121.97 0.282992 121.474 0.848975 121.333 1.55645L121.191 2.61767L122.253 2.47618C122.96 2.33468 123.526 1.83945 123.597 1.13197Z" fill="#85C48F"/>
<path d="M124.446 18.253L124.729 16.3428L122.889 16.6258C121.616 16.838 120.696 17.7577 120.484 19.0312L120.201 20.8706L122.111 20.5876C123.384 20.4462 124.304 19.5264 124.446 18.253Z" fill="#85C48F"/>
<path d="M125.366 35.4447L125.719 32.6855L123.031 33.11C121.262 33.393 119.918 34.6665 119.635 36.4352L119.21 39.1944L121.97 38.7699C123.738 38.5576 125.083 37.2134 125.366 35.4447Z" fill="#85C48F"/>
<path d="M126.214 52.5657L126.71 49.0283L123.172 49.5236C120.837 49.8773 119.139 51.646 118.786 53.9099L118.291 57.5181L121.828 56.9521C124.092 56.5983 125.861 54.9004 126.214 52.5657Z" fill="#85C48F"/>
<path d="M118.786 192.434L118.291 195.972L121.828 195.477C124.092 195.123 125.861 193.354 126.214 191.09L126.71 187.553L123.172 188.048C120.837 188.402 119.139 190.17 118.786 192.434Z" fill="#85C48F"/>
<path d="M119.635 209.626L119.21 212.314L121.97 211.89C123.738 211.678 125.083 210.334 125.366 208.565L125.719 205.806L123.031 206.23C121.262 206.513 119.918 207.857 119.635 209.626Z" fill="#85C48F"/>
<path d="M120.484 226.747L120.201 228.657L122.111 228.374C123.384 228.162 124.304 227.242 124.446 226.04L124.729 224.129L122.889 224.412C121.616 224.554 120.696 225.544 120.484 226.747Z" fill="#85C48F"/>
<path d="M121.333 243.939L121.191 245L122.253 244.859C122.96 244.717 123.526 244.222 123.597 243.514L123.809 242.382L122.677 242.595C121.97 242.665 121.474 243.231 121.333 243.939Z" fill="#85C48F"/>
<path d="M244.788 122.748C244.717 122.04 244.151 121.474 243.444 121.403L242.382 121.191L242.524 122.323C242.665 123.031 243.161 123.526 243.868 123.667L245 123.809L244.788 122.748Z" fill="#85C48F"/>
<path d="M225.969 120.554L224.129 120.271L224.412 122.111C224.554 123.384 225.474 124.304 226.747 124.516L228.657 124.799L228.374 122.889C228.162 121.616 227.242 120.696 225.969 120.554Z" fill="#85C48F"/>
<path d="M208.494 119.635L205.806 119.281L206.23 121.969C206.442 123.738 207.787 125.082 209.555 125.365L212.314 125.79L211.89 123.031C211.607 121.262 210.334 119.918 208.494 119.635Z" fill="#85C48F"/>
<path d="M195.476 123.172C195.123 120.908 193.354 119.14 191.09 118.786L187.482 118.291L188.048 121.828C188.402 124.092 190.1 125.861 192.434 126.214L195.972 126.71L195.476 123.172Z" fill="#85C48F"/>
<path d="M49.5236 121.828C49.8773 124.092 51.646 125.861 53.9099 126.214L57.4473 126.71L56.9521 123.172C56.5984 120.908 54.8296 119.14 52.5657 118.786L49.0283 118.291L49.5236 121.828Z" fill="#85C48F"/>
<path d="M36.4352 125.365L39.1944 125.79L38.7699 123.031C38.4869 121.262 37.1427 119.918 35.374 119.635L32.6855 119.281L33.11 121.969C33.3223 123.738 34.6665 125.082 36.4352 125.365Z" fill="#85C48F"/>
<path d="M20.8706 124.799L20.5876 122.889C20.4462 121.616 19.4557 120.696 18.253 120.554L16.3428 120.271L16.6258 122.111C16.838 123.384 17.7577 124.304 18.9604 124.516L20.8706 124.799Z" fill="#85C48F"/>
<path d="M2.40543 122.748C2.33468 122.04 1.7687 121.474 1.06122 121.403L0 121.191L0.141496 122.323C0.282992 123.031 0.778227 123.526 1.48571 123.667L2.61767 123.809L2.40543 122.748Z" fill="#85C48F"/>
<path d="M209.131 37.4963L209.98 36.7888L209.131 36.1521C208.565 35.7276 207.787 35.7276 207.221 36.1521L206.372 36.7888L207.221 37.4963C207.787 37.9208 208.565 37.9208 209.131 37.4963Z" fill="#85C48F"/>
<path d="M197.599 50.231L199.155 49.0283L197.599 47.8963C196.608 47.1889 195.264 47.1889 194.274 47.8963L192.717 49.0283L194.274 50.231C195.264 50.9385 196.608 50.9385 197.599 50.231Z" fill="#85C48F"/>
<path d="M179.134 61.2678L181.327 62.9658C182.742 64.027 184.652 64.027 186.067 62.9658L188.331 61.2678L186.067 59.6406C184.652 58.5794 182.742 58.5794 181.327 59.6406L179.134 61.2678Z" fill="#85C48F"/>
<path d="M174.535 75.7002L177.436 73.5071L174.535 71.3846C172.696 70.0404 170.22 70.0404 168.38 71.3846L165.479 73.5071L168.38 75.7002C170.22 77.0445 172.696 77.0445 174.535 75.7002Z" fill="#85C48F"/>
<path d="M70.3944 169.37L67.5645 171.493L70.3944 173.615C72.3046 175.03 74.7807 175.03 76.6202 173.615L79.5208 171.493L76.6202 169.37C74.7807 167.955 72.3046 167.955 70.3944 169.37Z" fill="#85C48F"/>
<path d="M65.8662 183.732L63.673 182.105C62.258 181.044 60.3478 181.044 58.8621 182.105L56.6689 183.732L58.8621 185.36C60.3478 186.421 62.258 186.421 63.673 185.36L65.8662 183.732Z" fill="#85C48F"/>
<path d="M47.4012 194.84L45.8447 195.972L47.4012 197.104C48.3917 197.882 49.6651 197.882 50.7263 197.104L52.2828 195.972L50.7263 194.84C49.6651 194.062 48.3917 194.062 47.4012 194.84Z" fill="#85C48F"/>
<path d="M35.8689 207.574L34.9492 208.211L35.8689 208.848C36.4349 209.272 37.1424 209.272 37.7084 208.848L38.6281 208.211L37.7084 207.574C37.1424 207.15 36.4349 207.15 35.8689 207.574Z" fill="#85C48F"/>
<path d="M208.211 206.372L207.503 207.221C207.079 207.857 207.079 208.565 207.503 209.131L208.211 210.05L208.848 209.131C209.272 208.565 209.272 207.857 208.848 207.221L208.211 206.372Z" fill="#85C48F"/>
<path d="M195.972 192.717L194.769 194.274C194.061 195.264 194.061 196.608 194.769 197.599L195.972 199.155L197.104 197.599C197.811 196.608 197.811 195.264 197.104 194.274L195.972 192.717Z" fill="#85C48F"/>
<path d="M183.732 179.134L182.034 181.327C180.973 182.742 180.973 184.652 182.034 186.138L183.732 188.331L185.359 186.138C186.421 184.652 186.421 182.742 185.359 181.327L183.732 179.134Z" fill="#85C48F"/>
<path d="M171.493 165.479L169.3 168.38C167.955 170.22 167.955 172.696 169.3 174.606L171.493 177.436L173.615 174.606C174.959 172.696 174.959 170.22 173.615 168.38L171.493 165.479Z" fill="#85C48F"/>
<path d="M73.5069 79.5209L75.6293 76.6202C77.0443 74.7807 77.0443 72.3046 75.6293 70.4651L73.5069 67.5645L71.3845 70.4651C69.9695 72.3046 69.9695 74.7807 71.3845 76.6202L73.5069 79.5209Z" fill="#85C48F"/>
<path d="M61.2678 65.8664L62.895 63.6732C63.9563 62.2583 63.9563 60.3481 62.895 58.9331L61.2678 56.6692L59.6406 58.9331C58.5794 60.3481 58.5794 62.2583 59.6406 63.6732L61.2678 65.8664Z" fill="#85C48F"/>
<path d="M49.0281 52.2828L50.1601 50.7263C50.9383 49.7359 50.9383 48.3916 50.1601 47.4012L49.0281 45.8447L47.8962 47.4012C47.1179 48.3916 47.1179 49.7359 47.8962 50.7263L49.0281 52.2828Z" fill="#85C48F"/>
<path d="M36.7891 38.6284L37.4258 37.7794C37.8503 37.2134 37.8503 36.4352 37.4258 35.8692L36.7891 35.0203L36.1523 35.8692C35.7279 36.4352 35.7279 37.2134 36.1523 37.7794L36.7891 38.6284Z" fill="#85C48F"/>
<path d="M75.4172 12.2394L76.3369 11.6734C76.9737 11.3197 77.2566 10.6122 77.0444 9.90472L76.8322 8.84351L75.8417 9.40949C75.2757 9.76323 74.9927 10.4707 75.1342 11.1782L75.4172 12.2394Z" fill="#85C48F"/>
<path d="M81.5015 29.5019L83.1287 28.5114C84.2607 27.8747 84.7559 26.672 84.4022 25.4693L83.9777 23.5591L82.3505 24.5496C81.2185 25.1863 80.7233 26.389 81.0063 27.6625L81.5015 29.5019Z" fill="#85C48F"/>
<path d="M87.5857 46.7644L89.9911 45.3495C91.4768 44.4297 92.2551 42.661 91.7598 40.9631L91.1231 38.2747L88.7884 39.6896C87.2319 40.6093 86.5245 42.378 86.949 44.076L87.5857 46.7644Z" fill="#85C48F"/>
<path d="M93.6704 64.0269L96.7833 62.1875C98.7643 60.9847 99.684 58.7208 99.118 56.4569L98.2691 52.9902L95.2269 54.8297C93.1752 56.0324 92.2555 58.2963 92.8215 60.5603L93.6704 64.0269Z" fill="#85C48F"/>
<path d="M151.259 180.973L148.217 182.813C146.236 184.015 145.245 186.279 145.811 188.543L146.731 192.01L149.773 190.17C151.754 188.968 152.745 186.704 152.179 184.44L151.259 180.973Z" fill="#85C48F"/>
<path d="M157.343 198.236L155.009 199.651C153.452 200.571 152.745 202.339 153.169 204.037L153.877 206.726L156.211 205.311C157.768 204.391 158.475 202.622 158.051 200.924L157.343 198.236Z" fill="#85C48F"/>
<path d="M163.498 215.498L161.8 216.489C160.739 217.125 160.244 218.399 160.527 219.601L161.022 221.441L162.649 220.45C163.71 219.814 164.276 218.611 163.923 217.408L163.498 215.498Z" fill="#85C48F"/>
<path d="M169.583 232.761L168.663 233.327C168.026 233.68 167.743 234.388 167.885 235.095L168.168 236.157L169.088 235.591C169.724 235.237 170.007 234.529 169.866 233.822L169.583 232.761Z" fill="#85C48F"/>
<path d="M233.822 75.1343L232.761 75.4173L233.327 76.3371C233.68 76.9738 234.388 77.2568 235.095 77.1153L236.157 76.8323L235.591 75.9126C235.237 75.2758 234.529 74.9928 233.822 75.1343Z" fill="#85C48F"/>
<path d="M217.337 81.0772L215.498 81.5017L216.489 83.1996C217.125 84.2609 218.328 84.7561 219.531 84.4731L221.441 83.9779L220.45 82.3507C219.814 81.2894 218.54 80.7235 217.337 81.0772Z" fill="#85C48F"/>
<path d="M204.037 91.8308L206.726 91.1233L205.311 88.7886C204.391 87.2322 202.622 86.5247 200.924 86.9492L198.236 87.6567L199.651 89.9914C200.571 91.5478 202.339 92.2553 204.037 91.8308Z" fill="#85C48F"/>
<path d="M188.543 99.1886L192.01 98.2689L190.17 95.2267C188.968 93.2458 186.704 92.2553 184.44 92.8213L180.973 93.741L182.813 96.7832C184.015 98.7641 186.279 99.7546 188.543 99.1886Z" fill="#85C48F"/>
<path d="M56.4569 145.882L52.9902 146.731L54.8297 149.773C56.0324 151.825 58.2963 152.745 60.5603 152.179L64.0269 151.33L62.1875 148.217C60.9847 146.236 58.7208 145.316 56.4569 145.882Z" fill="#85C48F"/>
<path d="M45.3492 155.009C44.4295 153.523 42.6608 152.745 40.9628 153.24L38.2744 153.877L39.6894 156.211C40.6091 157.768 42.3778 158.475 44.0757 158.051L46.7642 157.414L45.3492 155.009Z" fill="#85C48F"/>
<path d="M25.3985 160.598L23.5591 161.022L24.5496 162.649C25.1863 163.781 26.389 164.277 27.5917 163.923L29.5019 163.498L28.5114 161.871C27.8747 160.739 26.6012 160.244 25.3985 160.598Z" fill="#85C48F"/>
<path d="M9.90448 167.955L8.84326 168.168L9.40925 169.158C9.76298 169.724 10.4705 170.007 11.1779 169.866L12.2392 169.583L11.6732 168.663C11.2487 168.026 10.612 167.743 9.90448 167.955Z" fill="#85C48F"/>
<path d="M170.007 10.7536L170.573 9.83384L169.512 9.55085C168.804 9.40935 168.097 9.69234 167.743 10.3291L167.177 11.2488L168.238 11.5318C168.946 11.6733 169.653 11.3903 170.007 10.7536Z" fill="#85C48F"/>
<path d="M164.206 26.9548L165.196 25.3276L163.357 24.8324C162.154 24.5494 160.881 25.0447 160.244 26.1059L159.253 27.7331L161.164 28.2283C162.366 28.5113 163.569 28.0161 164.206 26.9548Z" fill="#85C48F"/>
<path d="M158.475 43.1562L159.89 40.7507L157.202 40.114C155.433 39.6895 153.735 40.397 152.815 41.9534L151.4 44.2881L154.018 44.9249C155.787 45.4201 157.555 44.6419 158.475 43.1562Z" fill="#85C48F"/>
<path d="M145.316 57.7304L143.477 60.8433L146.943 61.6923C149.207 62.2583 151.471 61.3386 152.674 59.2869L154.513 56.2447L151.047 55.3957C148.783 54.8297 146.519 55.7495 145.316 57.7304Z" fill="#85C48F"/>
<path d="M99.684 187.27L101.523 184.228L98.0568 183.308C95.7929 182.742 93.529 183.732 92.3263 185.713L90.4868 188.755L93.9535 189.675C96.2174 190.241 98.4813 189.251 99.684 187.27Z" fill="#85C48F"/>
<path d="M86.5248 201.914L85.1099 204.249L87.7983 204.886C89.4962 205.381 91.2649 204.603 92.1847 203.117L93.5996 200.712L90.9112 200.075C89.2132 199.65 87.4445 200.358 86.5248 201.914Z" fill="#85C48F"/>
<path d="M80.7942 218.045L79.8037 219.743L81.6432 220.168C82.8459 220.451 84.0486 219.955 84.6853 218.894L85.6758 217.267L83.8363 216.772C82.6336 216.489 81.4309 216.984 80.7942 218.045Z" fill="#85C48F"/>
<path d="M74.9927 234.246L74.4268 235.166L75.488 235.449C76.1955 235.591 76.9029 235.308 77.2567 234.742L77.8227 233.751L76.7614 233.539C76.054 233.327 75.3465 233.61 74.9927 234.246Z" fill="#85C48F"/>
<path d="M234.671 167.743L233.751 167.177L233.468 168.238C233.327 168.946 233.61 169.653 234.247 170.007L235.166 170.573L235.449 169.512C235.591 168.804 235.308 168.097 234.671 167.743Z" fill="#85C48F"/>
<path d="M218.894 160.315L217.267 159.324L216.771 161.164C216.488 162.367 216.984 163.569 218.045 164.206L219.672 165.197L220.167 163.357C220.45 162.154 219.955 160.952 218.894 160.315Z" fill="#85C48F"/>
<path d="M203.047 152.815L200.712 151.4L200.004 154.089C199.58 155.787 200.358 157.555 201.844 158.475L204.249 159.89L204.886 157.202C205.31 155.504 204.603 153.735 203.047 152.815Z" fill="#85C48F"/>
<path d="M187.27 145.316L184.157 143.477L183.308 146.943C182.742 149.207 183.662 151.471 185.713 152.674L188.755 154.513L189.604 151.047C190.17 148.783 189.251 146.519 187.27 145.316Z" fill="#85C48F"/>
<path d="M57.7304 99.6838L60.7725 101.523L61.6922 98.0566C62.2582 95.7927 61.2678 93.5287 59.2868 92.326L56.2447 90.4866L55.3249 93.9532C54.759 96.2171 55.7494 98.4811 57.7304 99.6838Z" fill="#85C48F"/>
<path d="M41.8829 92.1847L44.2884 93.5996L44.9251 90.9819C45.3496 89.2132 44.6421 87.4445 43.0856 86.5248L40.751 85.1099L40.1142 87.7983C39.619 89.567 40.3972 91.2649 41.8829 92.1847Z" fill="#85C48F"/>
<path d="M26.1059 84.7561L27.7331 85.7465L28.2283 83.8363C28.5113 82.6336 28.0161 81.4309 26.9548 80.7942L25.2569 79.8037L24.8324 81.6432C24.5494 82.8459 25.0447 84.1193 26.1059 84.7561Z" fill="#85C48F"/>
<path d="M10.2587 77.2567L11.2491 77.8227L11.4614 76.7614C11.6736 76.054 11.3906 75.3465 10.7539 74.9927L9.83419 74.4268L9.55119 75.488C9.4097 76.1955 9.69269 76.9029 10.2587 77.2567Z" fill="#85C48F"/>
<path d="M98.8347 4.81074C99.5421 4.52774 99.9666 3.96176 99.8959 3.18353L99.8251 2.12231L98.8347 2.47605C98.1272 2.75905 97.7734 3.39578 97.7734 4.10326L97.8442 5.16447L98.8347 4.81074Z" fill="#85C48F"/>
<path d="M102.231 22.6393C103.433 22.2148 104.141 21.1536 104.07 19.8802L103.999 17.97L102.231 18.6067C101.028 19.0312 100.25 20.0924 100.32 21.3659L100.462 23.2761L102.231 22.6393Z" fill="#85C48F"/>
<path d="M103.08 41.4582L105.627 40.4677C107.325 39.9017 108.386 38.3452 108.315 36.5058L108.174 33.8174L105.556 34.7371C103.858 35.3031 102.797 36.8595 102.938 38.699L103.08 41.4582Z" fill="#85C48F"/>
<path d="M105.485 55.9616L105.627 59.5697L109.023 58.367C111.216 57.5887 112.56 55.5371 112.489 53.2024L112.277 49.5942L108.952 50.797C106.759 51.5752 105.344 53.6269 105.485 55.9616Z" fill="#85C48F"/>
<path d="M139.515 189.039L139.303 185.43L135.977 186.633C133.784 187.482 132.369 189.463 132.511 191.798L132.652 195.406L136.048 194.203C138.241 193.425 139.585 191.373 139.515 189.039Z" fill="#85C48F"/>
<path d="M141.92 203.613L139.373 204.532C137.675 205.098 136.614 206.725 136.685 208.494L136.826 211.253L139.444 210.334C141.071 209.697 142.133 208.14 142.062 206.372L141.92 203.613Z" fill="#85C48F"/>
<path d="M142.698 222.361C141.566 222.785 140.788 223.917 140.859 225.12L141 227.03L142.769 226.393C143.972 225.969 144.679 224.908 144.609 223.634L144.538 221.724L142.698 222.361Z" fill="#85C48F"/>
<path d="M146.094 240.189C145.458 240.472 145.033 241.109 145.033 241.816L145.104 242.877L146.165 242.524C146.802 242.311 147.226 241.675 147.226 240.967L147.156 239.835L146.094 240.189Z" fill="#85C48F"/>
<path d="M241.746 99.9669L242.878 99.8961L242.524 98.8349C242.241 98.1982 241.604 97.7737 240.897 97.7737L239.835 97.8444L240.189 98.9057C240.472 99.5424 241.038 99.9669 241.746 99.9669Z" fill="#85C48F"/>
<path d="M225.12 104.141L227.03 103.999L226.393 102.231C225.969 101.028 224.837 100.321 223.634 100.391L221.724 100.462L222.361 102.302C222.785 103.433 223.847 104.212 225.12 104.141Z" fill="#85C48F"/>
<path d="M206.301 102.938L203.542 103.08L204.532 105.627C205.098 107.325 206.655 108.386 208.494 108.315L211.183 108.174L210.263 105.556C209.697 103.929 208.141 102.867 206.301 102.938Z" fill="#85C48F"/>
<path d="M191.797 112.489L195.406 112.348L194.203 108.952C193.425 106.759 191.373 105.414 189.038 105.485L185.43 105.697L186.633 109.022C187.411 111.216 189.463 112.631 191.797 112.489Z" fill="#85C48F"/>
<path d="M55.9615 139.515L59.5697 139.374L58.367 135.978C57.518 133.784 55.4663 132.44 53.2024 132.511L49.5942 132.723L50.797 136.048C51.5752 138.242 53.6269 139.656 55.9615 139.515Z" fill="#85C48F"/>
<path d="M36.5058 136.685L33.7466 136.826L34.6663 139.444C35.303 141.142 36.8595 142.203 38.6282 142.062L41.3874 141.92L40.4676 139.373C39.9017 137.675 38.2744 136.614 36.5058 136.685Z" fill="#85C48F"/>
<path d="M23.2763 144.538L22.6396 142.769C22.2151 141.567 21.0831 140.859 19.8804 140.93L17.9702 141.001L18.6069 142.769C19.0314 143.972 20.0927 144.68 21.3661 144.68L23.2763 144.538Z" fill="#85C48F"/>
<path d="M3.18378 145.104H2.12256L2.4763 146.165C2.68854 146.802 3.32527 147.227 4.03275 147.227L5.16472 147.156L4.81098 146.165C4.52799 145.458 3.89126 145.033 3.18378 145.104Z" fill="#85C48F"/>
<path d="M190.878 22.2149L191.585 21.3659L190.595 20.9414C189.958 20.5877 189.251 20.7291 188.755 21.2951L188.048 22.0734L189.038 22.5686C189.675 22.8516 190.383 22.7101 190.878 22.2149Z" fill="#85C48F"/>
<path d="M182.034 36.9304L183.379 35.5155L181.61 34.6665C180.478 34.1713 179.204 34.3835 178.355 35.3032L177.082 36.7889L178.78 37.5672C179.912 38.1331 181.185 37.8501 182.034 36.9304Z" fill="#85C48F"/>
<path d="M173.262 51.646L175.101 49.6651L172.625 48.4624C170.998 47.6842 169.158 48.0379 167.956 49.3821L166.045 51.4338L168.592 52.6365C170.149 53.344 172.059 52.9903 173.262 51.646Z" fill="#85C48F"/>
<path d="M157.485 63.4608L155.08 66.0784L158.334 67.6349C160.456 68.6254 162.862 68.1301 164.418 66.4322L166.824 63.7438L163.569 62.258C161.518 61.1968 159.041 61.6921 157.485 63.4608Z" fill="#85C48F"/>
<path d="M87.4442 181.61L89.8497 178.921L86.666 177.365C84.5436 176.374 82.1382 176.87 80.5817 178.568L78.1763 181.256L81.3599 182.812C83.4824 183.803 85.8878 183.308 87.4442 181.61Z" fill="#85C48F"/>
<path d="M71.7384 193.354L69.8989 195.406L72.3751 196.538C74.0023 197.316 75.8418 196.962 77.0445 195.618L78.8839 193.566L76.4077 192.434C74.7805 191.656 72.9411 192.01 71.7384 193.354Z" fill="#85C48F"/>
<path d="M62.895 208.07L61.6216 209.485L63.3903 210.334C64.5222 210.829 65.7957 210.617 66.6447 209.697L67.9181 208.282L66.2202 207.433C65.0882 206.867 63.744 207.15 62.895 208.07Z" fill="#85C48F"/>
<path d="M54.122 222.856L53.3438 223.634L54.3342 224.129C54.9709 224.412 55.7492 224.271 56.2444 223.705L56.9519 222.927L55.9614 222.431C55.3247 222.148 54.5465 222.29 54.122 222.856Z" fill="#85C48F"/>
<path d="M222.927 188.048L222.431 189.038C222.148 189.675 222.29 190.383 222.785 190.878L223.634 191.656L224.059 190.666C224.412 190.029 224.271 189.251 223.705 188.755L222.927 188.048Z" fill="#85C48F"/>
<path d="M208.211 177.082L207.433 178.78C206.867 179.912 207.15 181.256 208.07 182.105L209.485 183.379L210.334 181.61C210.829 180.478 210.617 179.204 209.626 178.355L208.211 177.082Z" fill="#85C48F"/>
<path d="M196.538 172.625C197.316 170.998 196.962 169.158 195.618 167.955L193.566 166.116L192.364 168.592C191.656 170.219 192.01 172.059 193.354 173.262L195.335 175.101L196.538 172.625Z" fill="#85C48F"/>
<path d="M181.256 166.824L182.742 163.64C183.732 161.517 183.308 159.112 181.539 157.556L178.922 155.079L177.365 158.334C176.375 160.456 176.87 162.862 178.568 164.418L181.256 166.824Z" fill="#85C48F"/>
<path d="M63.7439 78.1763L62.1874 81.4307C61.1969 83.4824 61.6922 85.9585 63.3901 87.515L66.0785 89.9204L67.635 86.666C68.6255 84.5436 68.1302 82.1382 66.3615 80.5817L63.7439 78.1763Z" fill="#85C48F"/>
<path d="M48.4624 72.3751C47.6842 74.0023 48.0379 75.8417 49.3821 77.0445L51.4338 78.9547L52.5658 76.4077C53.344 74.7805 52.9903 72.9411 51.646 71.7384L49.5944 69.8989L48.4624 72.3751Z" fill="#85C48F"/>
<path d="M36.7181 67.9179L37.5671 66.22C38.133 65.088 37.85 63.7438 36.9303 62.9655L35.5154 61.6213L34.6664 63.39C34.1004 64.522 34.3834 65.7955 35.3031 66.6444L36.7181 67.9179Z" fill="#85C48F"/>
<path d="M22.0732 56.9519L22.5684 55.9615C22.8514 55.3247 22.7099 54.6173 22.144 54.122L21.3657 53.4146L20.8705 54.405C20.5875 55.0418 20.729 55.7492 21.295 56.2445L22.0732 56.9519Z" fill="#85C48F"/>
<path d="M54.8294 23.5591L55.6076 22.7808C56.1736 22.2856 56.3151 21.5781 55.9614 20.9414L55.5369 19.9509L54.6879 20.6584C54.1927 21.1536 54.0512 21.9319 54.3342 22.5686L54.8294 23.5591Z" fill="#85C48F"/>
<path d="M64.1685 39.2651L65.5835 37.9916C66.5032 37.1426 66.7862 35.8692 66.2202 34.7372L65.3713 32.9685L63.9563 34.3127C63.0366 35.0909 62.8243 36.4352 63.3196 37.5671L64.1685 39.2651Z" fill="#85C48F"/>
<path d="M73.5069 55.0419L75.5586 53.2024C76.832 51.9997 77.2565 50.1603 76.4783 48.5331L75.2756 46.0569L73.2239 47.8963C71.9504 49.099 71.5259 50.9385 72.3042 52.5657L73.5069 55.0419Z" fill="#85C48F"/>
<path d="M82.846 70.8186L85.5344 68.4132C87.2323 66.8567 87.7276 64.3806 86.7371 62.3289L85.1807 59.0745L82.563 61.4799C80.7943 63.0363 80.2991 65.4418 81.2895 67.5642L82.846 70.8186Z" fill="#85C48F"/>
<path d="M162.154 174.252L159.466 176.658C157.768 178.214 157.273 180.62 158.263 182.742L159.82 185.926L162.437 183.52C164.206 181.964 164.63 179.558 163.64 177.436L162.154 174.252Z" fill="#85C48F"/>
<path d="M171.493 189.958L169.441 191.797C168.097 193 167.743 194.91 168.521 196.538L169.653 199.014L171.705 197.174C173.049 195.972 173.403 194.061 172.625 192.434L171.493 189.958Z" fill="#85C48F"/>
<path d="M180.832 205.735L179.417 207.008C178.497 207.857 178.214 209.131 178.78 210.263L179.558 212.031L180.973 210.758C181.893 209.909 182.176 208.565 181.681 207.504L180.832 205.735Z" fill="#85C48F"/>
<path d="M190.17 221.512L189.392 222.219C188.826 222.714 188.685 223.422 188.968 224.059L189.463 225.049L190.241 224.342C190.807 223.846 190.949 223.139 190.666 222.502L190.17 221.512Z" fill="#85C48F"/>
<path d="M224.059 56.0323L225.049 55.5371L224.342 54.7589C223.846 54.1929 223.068 54.0514 222.431 54.3344L221.441 54.8296L222.219 55.6078C222.644 56.1738 223.422 56.3153 224.059 56.0323Z" fill="#85C48F"/>
<path d="M210.263 66.2202L212.031 65.442L210.687 64.027C209.909 63.0366 208.565 62.8243 207.433 63.3195L205.735 64.1685L207.008 65.5835C207.857 66.5032 209.131 66.7862 210.263 66.2202Z" fill="#85C48F"/>
<path d="M191.797 75.5586C193 76.9029 194.84 77.2566 196.467 76.4784L198.943 75.3464L197.104 73.2947C195.901 71.9505 194.061 71.5968 192.434 72.375L189.958 73.507L191.797 75.5586Z" fill="#85C48F"/>
<path d="M182.671 86.7371L185.925 85.1806L183.52 82.5629C181.963 80.7942 179.558 80.3698 177.436 81.3602L174.181 82.8459L176.587 85.5344C178.143 87.2323 180.619 87.7275 182.671 86.7371Z" fill="#85C48F"/>
<path d="M62.2584 158.263L59.0747 159.82L61.4801 162.437C63.0366 164.206 65.442 164.701 67.5645 163.711L70.7481 162.154L68.3427 159.466C66.7862 157.768 64.3808 157.273 62.2584 158.263Z" fill="#85C48F"/>
<path d="M53.2026 169.441C51.9999 168.097 50.0897 167.743 48.4625 168.521L45.9863 169.724L47.8258 171.776C49.0285 173.049 50.9387 173.474 52.5659 172.696L55.0421 171.493L53.2026 169.441Z" fill="#85C48F"/>
<path d="M34.7374 178.78L32.9688 179.558L34.2422 181.044C35.0912 181.964 36.3647 182.176 37.4966 181.681L39.2653 180.832L37.9919 179.417C37.1429 178.497 35.8694 178.214 34.7374 178.78Z" fill="#85C48F"/>
<path d="M20.9412 189.038L19.9507 189.463L20.6582 190.312C21.1534 190.807 21.8609 190.949 22.4976 190.666L23.4881 190.17L22.7806 189.392C22.2854 188.826 21.5779 188.685 20.9412 189.038Z" fill="#85C48F"/>
<path d="M147.297 3.67884L147.651 2.61762L146.59 2.54688C145.882 2.54688 145.246 2.97136 144.963 3.60809L144.609 4.66931L145.741 4.74006C146.448 4.74006 147.014 4.31557 147.297 3.67884Z" fill="#85C48F"/>
<path d="M144.75 20.6585L145.458 18.8191L143.477 18.7484C142.274 18.6776 141.142 19.4558 140.718 20.5878L140.081 22.4272L141.991 22.498C143.265 22.5687 144.326 21.8613 144.75 20.6585Z" fill="#85C48F"/>
<path d="M142.274 37.6378L143.194 35.0201L140.435 34.9494C138.666 34.8079 137.11 35.8691 136.473 37.567L135.553 40.1847L138.312 40.3262C140.081 40.397 141.638 39.3357 142.274 37.6378Z" fill="#85C48F"/>
<path d="M139.798 54.6174L141.001 51.2923L137.393 51.08C135.058 50.9385 133.006 52.3535 132.228 54.5467L131.025 57.9426L134.634 58.0841C136.897 58.2256 138.949 56.8106 139.798 54.6174Z" fill="#85C48F"/>
<path d="M105.202 190.383L104 193.779L107.608 193.92C109.942 194.062 111.994 192.647 112.772 190.453L113.975 187.128L110.367 186.916C108.032 186.845 105.98 188.189 105.202 190.383Z" fill="#85C48F"/>
<path d="M102.726 207.362L101.806 209.98L104.495 210.121C106.334 210.192 107.89 209.131 108.527 207.433L109.447 204.886L106.688 204.745C104.919 204.603 103.292 205.664 102.726 207.362Z" fill="#85C48F"/>
<path d="M100.179 224.342L99.5425 226.181L101.453 226.252C102.726 226.323 103.858 225.615 104.212 224.412L104.919 222.573L102.938 222.502C101.736 222.432 100.604 223.21 100.179 224.342Z" fill="#85C48F"/>
<path d="M97.7029 241.321L97.3491 242.382L98.4103 242.453C99.1178 242.453 99.7545 242.029 99.9668 241.392L100.391 240.331H99.2593C98.5518 240.26 97.9151 240.684 97.7029 241.321Z" fill="#85C48F"/>
<path d="M241.392 145.033L240.331 144.609L240.26 145.741C240.26 146.448 240.684 147.085 241.321 147.297L242.382 147.651L242.453 146.59C242.453 145.882 242.028 145.246 241.392 145.033Z" fill="#85C48F"/>
<path d="M224.412 140.718L222.573 140.081L222.502 141.991C222.431 143.265 223.139 144.397 224.341 144.821L226.181 145.458L226.252 143.548C226.322 142.274 225.544 141.142 224.412 140.718Z" fill="#85C48F"/>
<path d="M209.98 143.194L210.051 140.435C210.192 138.666 209.131 137.11 207.433 136.473L204.815 135.553L204.674 138.312C204.603 140.081 205.664 141.708 207.362 142.274L209.98 143.194Z" fill="#85C48F"/>
<path d="M190.383 139.798L193.708 141.001L193.92 137.392C193.991 135.058 192.647 133.006 190.453 132.228L187.057 131.025L186.916 134.633C186.774 136.968 188.189 139.02 190.383 139.798Z" fill="#85C48F"/>
<path d="M57.8718 113.975L58.0841 110.367C58.1548 108.032 56.8106 105.98 54.6174 105.202L51.2215 104L51.08 107.608C50.9385 109.942 52.3535 111.994 54.5467 112.772L57.8718 113.975Z" fill="#85C48F"/>
<path d="M35.0203 101.806L34.8788 104.565C34.8081 106.334 35.8693 107.89 37.5672 108.527L40.1142 109.447L40.2557 106.688C40.3972 104.919 39.3359 103.363 37.638 102.726L35.0203 101.806Z" fill="#85C48F"/>
<path d="M20.5875 104.282L22.4269 104.919L22.4977 103.009C22.5684 101.735 21.7902 100.674 20.6582 100.25L18.8188 99.5422L18.748 101.523C18.6773 102.726 19.3847 103.858 20.5875 104.282Z" fill="#85C48F"/>
<path d="M3.60809 100.038L4.66931 100.391V99.2593C4.74006 98.5518 4.31557 97.9859 3.60809 97.7029L2.61762 97.3491L2.54688 98.4103C2.54688 99.1178 2.97136 99.7546 3.60809 100.038Z" fill="#85C48F"/>
</svg>
